<?xml version="1.0" standalone="no"?>
<!DOCTYPE svg PUBLIC "-//W3C//DTD SVG 20010904//EN"
 "http://www.w3.org/TR/2001/REC-SVG-20010904/DTD/svg10.dtd">
<svg version="1.0" xmlns="http://www.w3.org/2000/svg"
 width="16.000000pt" height="16.000000pt" viewBox="0 0 16.000000 16.000000"
 preserveAspectRatio="xMidYMid meet">

<g transform="translate(0.000000,16.000000) scale(0.100000,-0.100000)"
fill="#000000" stroke="none">
<path d="M42 121 c-8 -5 -12 -17 -9 -27 4 -17 6 -17 12 4 5 16 15 22 36 22 29
0 40 -15 17 -22 -7 -3 -2 -7 10 -10 17 -5 22 -2 22 12 0 27 -57 41 -88 21z"/>
<path d="M80 58 c0 -4 5 -8 11 -8 6 0 8 -8 5 -17 -5 -15 -4 -15 9 1 20 26 19
32 -5 32 -11 0 -20 -4 -20 -8z"/>
</g>
</svg>
